<?xml version="1.0" encoding="utf-8"?>
<!DOCTYPE svg
  PUBLIC '-//W3C//DTD SVG 1.0//EN'
  'http://www.w3.org/TR/2001/REC-SVG-20010904/DTD/svg10.dtd'>
<svg width="200.0" height="362.0" preserveAspectRatio="xMinYMin meet" viewBox="0 0 200 362" xmlns="http://www.w3.org/2000/svg" version="1.0" fill-rule="evenodd" xmlns:xlink="http://www.w3.org/1999/xlink">
	<title>...</title>
	<desc>...</desc>
	<clipPath id="clip">
		<rect x="0" y="0" width="200.0" height="362.0"/>
	</clipPath>
	<g id="group" transform="scale(1,-1) translate(0,-362)" style="clip-path: url(#clip)">
		<g transform="">
			<g transform=" matrix(1,0,0,-1,0,362)">
				<g transform=" matrix(1,0,0,1,-395.71431,-323.50506)">
					<g transform="">
						<path d="M 518.74726 391.26389 C 517.08024 392.9848 522.89393 396.12391 524.79473 398.68803 C 526.9369 401.57776 528.63712 404.78154 530.81895 407.64143 C 533.9594 411.75785 538.72814 418.50453 540.95733 419.40916 C 543.18651 420.31379 543.5713 421.09611 543.06309 418.59928 C 543.01449 414.50999 543.53197 408.2021 542.73349 402.80111 C 541.8808 397.19783 538.50436 392.8426 534.02942 390.65552 C 529.44911 388.41694 518.9494 390.97019 518.74726 391.26389 Z " style="stroke: none; stroke-linecap: butt; stroke-width: 1; fill: rgb(98%,0%,0%); fill-rule: evenodd;"/>
					</g>
					<g transform="">
						<path d="M 469.94763 392.44977 C 471.61465 394.17068 465.80096 397.30979 463.90016 399.87391 C 461.75799 402.76364 460.05777 405.96742 457.87595 408.82731 C 454.7355 412.94373 449.96675 419.69041 447.73757 420.59504 C 445.50838 421.49967 445.1236 422.28199 445.6318 419.78516 C 445.6804 415.69587 445.16292 409.38798 445.96141 403.98699 C 446.8141 398.38371 450.19054 394.02848 454.66548 391.8414 C 459.24579 389.60282 469.74549 392.15607 469.94763 392.44977 Z " style="stroke: none; stroke-linecap: butt; stroke-width: 1; fill: rgb(98%,0%,0%); fill-rule: evenodd;"/>
					</g>
				</g>
			</g>
		</g>
	</g>
</svg>
