<?xml version="1.0" encoding="utf-8"?>
<!DOCTYPE svg PUBLIC '-//W3C//DTD SVG 1.0//EN' 'http://www.w3.org/TR/2001/REC-SVG-20010904/DTD/svg10.dtd'>
<svg width="200.0" height="369.03" preserveAspectRatio="xMinYMin meet" viewBox="0 0 200 369" xmlns="http://www.w3.org/2000/svg" version="1.0" fill-rule="evenodd" xmlns:xlink="http://www.w3.org/1999/xlink">
	<title>...</title>
	<desc>...</desc>
	<clipPath id="clip">
		<rect x="0" y="0" width="200.0" height="369.03" />
	</clipPath>
	<g id="group" transform="scale(1,-1) translate(0,-369)" style="clip-path: url(#clip)">
		<g transform="">
			<g transform=" matrix(1,0,0,-1,0,369.03)">
				<g transform=" matrix(1,0,0,1,-54.28571,-335.71492)">
					<g transform="">
						<path d="M 130.51664 546.66621 C 128.84962 548.38712 129.86335 563.23019 129.36677 572.52563 C 128.80967 582.95382 129.55629 585.27112 128.41527 593.43179 C 128.09842 595.69795 128.11141 603.6065 128.06738 606.98537 C 128.00478 611.79335 130.42073 606.48427 131.89231 604.1059 C 133.36389 601.72753 134.59049 596.77075 135.26076 592.94196 C 136.53354 585.67139 136.40253 578.21133 136.44639 570.83033 C 136.49399 562.81855 136.65058 550.2789 135.44474 546.81546 C 133.8623 542.27037 130.71878 546.37251 130.51664 546.66621 Z " style="stroke: none; stroke-linecap: butt; stroke-width: 1; fill: rgb(98%,0%,0%); fill-rule: evenodd;" />
					</g>
					<g transform="">
						<path d="M 178.26043 546.55155 C 179.92745 548.27246 178.91372 563.11553 179.4103 572.41097 C 179.9674 582.83916 179.22078 585.15646 180.3618 593.31713 C 180.67865 595.58329 180.66566 603.49184 180.70969 606.87071 C 180.77229 611.67869 178.35634 606.36961 176.88476 603.99124 C 175.41318 601.61287 174.18658 596.65609 173.51631 592.8273 C 172.24353 585.55673 172.37454 578.09667 172.33068 570.71567 C 172.28308 562.70389 172.12649 550.16424 173.33233 546.7008 C 174.91477 542.15571 178.05829 546.25785 178.26043 546.55155 Z " style="stroke: none; stroke-linecap: butt; stroke-width: 1; fill: rgb(98%,0%,0%); fill-rule: evenodd;" />
					</g>
				</g>
			</g>
		</g>
	</g>
</svg>