<?xml version="1.0" encoding="utf-8"?>
<!DOCTYPE svg
  PUBLIC '-//W3C//DTD SVG 1.0//EN'
  'http://www.w3.org/TR/2001/REC-SVG-20010904/DTD/svg10.dtd'>
<svg width="200.0" height="362.0" preserveAspectRatio="xMinYMin meet" viewBox="0 0 200 362" xmlns="http://www.w3.org/2000/svg" version="1.0" fill-rule="evenodd" xmlns:xlink="http://www.w3.org/1999/xlink">
	<title>...</title>
	<desc>...</desc>
	<clipPath id="clip">
		<rect x="0" y="0" width="200.0" height="362.0"/>
	</clipPath>
	<g id="group" transform="scale(1,-1) translate(0,-362)" style="clip-path: url(#clip)">
		<g transform="">
			<g transform=" matrix(1,0,0,-1,0,362)">
				<g transform=" matrix(1,0,0,1,-395.71431,-323.50506)">
					<g transform="">
						<path d="M 531.54658 419.32035 C 529.87956 421.04126 530.18623 427.39154 530.58611 431.41645 C 531.06812 436.2679 532.06807 441.31138 534.59003 445.48375 C 536.52256 448.68096 540.47891 452.30623 542.7081 453.21086 C 544.93728 454.11549 546.20596 446.43779 545.69775 443.94096 C 545.64915 439.85167 545.78785 435.31155 544.98934 429.91056 C 544.13665 424.30728 542.07843 421.7718 539.18946 419.15393 C 537.30117 417.44283 533.07454 416.1856 531.54658 419.32035 Z " style="stroke: none; stroke-linecap: butt; stroke-width: 1; fill: rgb(98%,0%,0%); fill-rule: evenodd;"/>
					</g>
					<g transform="">
						<path d="M 456.65005 420.35548 C 458.31707 422.07639 458.0104 428.42667 457.61052 432.45158 C 457.12851 437.30303 456.12856 442.34651 453.6066 446.51888 C 451.67407 449.71609 447.71772 453.34136 445.48853 454.24599 C 443.25935 455.15062 441.99067 447.47292 442.49888 444.97609 C 442.54748 440.8868 442.40878 436.34668 443.20729 430.94569 C 444.05998 425.34241 446.1182 422.80693 449.00717 420.18906 C 450.89546 418.47796 455.12209 417.22073 456.65005 420.35548 Z " style="stroke: none; stroke-linecap: butt; stroke-width: 1; fill: rgb(98%,0%,0%); fill-rule: evenodd;"/>
					</g>
				</g>
			</g>
		</g>
	</g>
</svg>
