<?xml version="1.0" encoding="utf-8"?>
<!DOCTYPE svg PUBLIC '-//W3C//DTD SVG 1.0//EN' 'http://www.w3.org/TR/2001/REC-SVG-20010904/DTD/svg10.dtd'>
<svg width="200.0" height="369.0" preserveAspectRatio="xMinYMin meet" viewBox="0 0 200 369" xmlns="http://www.w3.org/2000/svg" version="1.0" fill-rule="evenodd" xmlns:xlink="http://www.w3.org/1999/xlink">
	<title>...</title>
	<desc>...</desc>
	<clipPath id="clip">
		<rect x="0" y="0" width="200.0" height="369.0" />
	</clipPath>
	<g id="group" transform="scale(1,-1) translate(0,-369)" style="clip-path: url(#clip)">
		<g transform="">
			<g transform=" matrix(1,0,0,-1,0,369)">
				<g transform=" matrix(1,0,0,1,-395.71431,-316.50506)">
					<g transform="">
						<g transform="">
							<path d="M 444.70857 445.05695 C 439.7808 441.50124 439.8332 438.31124 440.50534 433.07291 C 441.20979 427.58276 440.53274 427.05464 443.45552 422.49073 C 447.80506 415.69899 441.57929 421.22224 444.70857 445.05695 Z " style="stroke: none; stroke-linecap: butt; stroke-width: 1; fill: rgb(98%,0%,0%); fill-rule: evenodd;" />
						</g>
						<g transform="">
							<path d="M 447.66963 445.34485 C 452.5974 441.78914 456.1121 440.05124 456.16601 435.00231 C 456.22511 429.46746 457.14879 428.85777 456.37255 423.53625 C 455.20848 415.55557 458.88012 431.61167 447.66963 445.34485 Z " style="stroke: none; stroke-linecap: butt; stroke-width: 1; fill: rgb(98%,0%,0%); fill-rule: evenodd;" />
						</g>
					</g>
					<g transform=" matrix(-1,0,0,1,987.71404,-0.61367)">
						<g transform="">
							<path d="M 444.70857 445.05695 C 439.7808 441.50124 439.8332 438.31124 440.50534 433.07291 C 441.20979 427.58276 440.53274 427.05464 443.45552 422.49073 C 447.80506 415.69899 441.57929 421.22224 444.70857 445.05695 Z " style="stroke: none; stroke-linecap: butt; stroke-width: 1; fill: rgb(98%,0%,0%); fill-rule: evenodd;" />
						</g>
						<g transform="">
							<path d="M 447.66963 445.34485 C 452.5974 441.78914 456.1121 440.05124 456.16601 435.00231 C 456.22511 429.46746 457.14879 428.85777 456.37255 423.53625 C 455.20848 415.55557 458.88012 431.61167 447.66963 445.34485 Z " style="stroke: none; stroke-linecap: butt; stroke-width: 1; fill: rgb(98%,0%,0%); fill-rule: evenodd;" />
						</g>
					</g>
				</g>
			</g>
		</g>
	</g>
</svg>