<?xml version="1.0" encoding="utf-8"?>
<!DOCTYPE svg PUBLIC '-//W3C//DTD SVG 1.0//EN' 'http://www.w3.org/TR/2001/REC-SVG-20010904/DTD/svg10.dtd'>
<svg width="200.0" height="369.03" preserveAspectRatio="xMinYMin meet" viewBox="0 0 200 369" xmlns="http://www.w3.org/2000/svg" version="1.0" fill-rule="evenodd" xmlns:xlink="http://www.w3.org/1999/xlink">
	<title>...</title>
	<desc>...</desc>
	<clipPath id="clip">
		<rect x="0" y="0" width="200.0" height="369.03" />
	</clipPath>
	<g id="group" transform="scale(1,-1) translate(0,-369)" style="clip-path: url(#clip)">
		<g transform="">
			<g transform=" matrix(1,0,0,-1,0,369.03)">
				<g transform=" matrix(1,0,0,1,-54.28571,-335.71492)">
					<g transform="">
						<path d="M 157.84649 628.07391 C 158.03066 632.58062 158.47449 639.72569 159.75851 645.38858 C 160.58914 649.05188 162.13325 650.48142 163.47363 656.02746 C 165.61746 664.89786 162.65932 685.22053 163.49813 685.61867 C 165.08705 686.53845 165.32132 685.33356 165.89764 684.70003 C 170.11883 680.05987 168.64678 672.40835 170.93789 666.5688 C 173.55957 659.8867 175.89962 660.12751 180.81753 647.43491 C 181.2313 643.17756 183.15038 636.78646 183.32282 631.36928 C 183.46297 626.96627 183.10648 620.59586 182.12113 618.20831 C 182.03893 615.00018 174.94992 601.21953 172.77731 599.65044 C 170.22703 599.00795 167.66798 595.98952 166.19187 598.01248 C 162.75797 599.49937 162.82445 599.69823 161.52025 602.04973 C 159.21098 606.2134 160.63791 616.49791 157.84651 628.07391 Z " style="stroke: none; stroke-linecap: butt; stroke-width: 1; fill: rgb(98%,0%,0%); fill-rule: evenodd;" />
					</g>
					<g transform="">
						<path d="M 151.38626 628.55089 C 151.20209 633.0576 150.75826 640.20267 149.47424 645.86556 C 148.64361 649.52886 147.0995 650.9584 145.75912 656.50444 C 143.61529 665.37484 146.57343 685.69751 145.73462 686.09565 C 144.1457 687.01543 143.91143 685.81054 143.33511 685.17701 C 139.11392 680.53685 140.58597 672.88533 138.29486 667.04578 C 135.67318 660.36368 133.33313 660.60449 128.41522 647.91189 C 128.00145 643.65454 126.08237 637.26344 125.90993 631.84626 C 125.76978 627.44325 126.12627 621.07284 127.11162 618.68529 C 127.19382 615.47716 134.28283 601.69651 136.45544 600.12742 C 139.00572 599.48493 141.56477 596.4665 143.04088 598.48946 C 146.47478 599.97635 146.4083 600.17521 147.7125 602.52671 C 150.02177 606.69038 148.59484 616.97489 151.38624 628.55089 Z " style="stroke: none; stroke-linecap: butt; stroke-width: 1; fill: rgb(98%,0%,0%); fill-rule: evenodd;" />
					</g>
				</g>
			</g>
		</g>
	</g>
</svg>