<?xml version="1.0" encoding="utf-8"?>
<!DOCTYPE svg PUBLIC '-//W3C//DTD SVG 1.0//EN' 'http://www.w3.org/TR/2001/REC-SVG-20010904/DTD/svg10.dtd'>
<svg width="200.0" height="369.03" preserveAspectRatio="xMinYMin meet" viewBox="0 0 200 369" xmlns="http://www.w3.org/2000/svg" version="1.0" fill-rule="evenodd" xmlns:xlink="http://www.w3.org/1999/xlink">
	<title>...</title>
	<desc>...</desc>
	<clipPath id="clip">
		<rect x="0" y="0" width="200.0" height="369.03" />
	</clipPath>
	<g id="group" transform="scale(1,-1) translate(0,-369)" style="clip-path: url(#clip)">
		<g transform="">
			<g transform=" matrix(1,0,0,-1,0,369.03)">
				<g transform=" matrix(1,0,0,1,-54.28571,-335.71492)">
					<g transform="">
						<path d="M 164.02666 497.12852 C 162.47035 498.64877 162.46162 501.22723 161.7127 503.28899 C 160.63751 506.24897 159.63618 509.23527 158.58399 512.2035 C 157.63872 514.8701 155.76818 517.70694 155.72316 520.19438 C 155.59589 527.22686 161.10198 529.53307 164.43972 532.4009 C 167.77746 535.26873 171.38952 537.91401 173.7668 540.24012 C 176.14408 542.56623 179.84099 544.50952 183.07035 547.9548 C 185.32945 550.36495 187.90878 553.08435 188.24137 557.5736 C 188.70563 563.84014 186.83128 572.62149 187.32069 571.99568 C 190.61439 567.78409 193.15623 540.82693 191.38405 531.36928 C 190.75444 528.00919 190.80899 521.69778 189.06864 517.26139 C 186.65495 511.10859 182.61485 505.57581 178.11949 500.73077 C 175.28148 497.672 170.40205 494.62651 168.22944 493.05742 C 165.67916 492.41493 165.50281 495.10552 164.0267 497.12848 Z " style="stroke: none; stroke-linecap: butt; stroke-width: 1; fill: rgb(98%,0%,0%); fill-rule: evenodd;" />
					</g>
					<g transform="">
						<path d="M 144.10239 497.59374 C 145.6587 499.11399 145.66743 501.69245 146.41635 503.75421 C 147.49154 506.71419 148.49287 509.70049 149.54506 512.66872 C 150.49033 515.33532 152.36087 518.17216 152.40589 520.6596 C 152.53316 527.69208 147.02707 529.99829 143.68933 532.86612 C 140.35159 535.73395 136.73953 538.37923 134.36225 540.70534 C 131.98497 543.03145 128.28806 544.97474 125.0587 548.42002 C 122.7996 550.83017 120.22027 553.54957 119.88768 558.03882 C 119.42342 564.30536 121.29777 573.08671 120.80836 572.4609 C 117.51466 568.24931 114.97282 541.29215 116.745 531.8345 C 117.37461 528.47441 117.32006 522.163 119.06041 517.72661 C 121.4741 511.57381 125.5142 506.04103 130.00956 501.19599 C 132.84757 498.13722 137.727 495.09173 139.89961 493.52264 C 142.44989 492.88015 142.62624 495.57074 144.10235 497.5937 Z " style="stroke: none; stroke-linecap: butt; stroke-width: 1; fill: rgb(98%,0%,0%); fill-rule: evenodd;" />
					</g>
				</g>
			</g>
		</g>
	</g>
</svg>