<?xml version="1.0" encoding="utf-8"?>
<!DOCTYPE svg PUBLIC '-//W3C//DTD SVG 1.0//EN' 'http://www.w3.org/TR/2001/REC-SVG-20010904/DTD/svg10.dtd'>
<svg width="200.0" height="369.03" preserveAspectRatio="xMinYMin meet" viewBox="0 0 200 369" xmlns="http://www.w3.org/2000/svg" version="1.0" fill-rule="evenodd" xmlns:xlink="http://www.w3.org/1999/xlink">
	<title>...</title>
	<desc>...</desc>
	<clipPath id="clip">
		<rect x="0" y="0" width="200.0" height="369.03" />
	</clipPath>
	<g id="group" transform="scale(1,-1) translate(0,-369)" style="clip-path: url(#clip)">
		<g transform="">
			<g transform=" matrix(1,0,0,-1,0,369.03)">
				<g transform=" matrix(1,0,0,1,-54.28571,-335.71492)">
					<g transform="">
						<path d="M 118.2971 433.23148 C 116.63008 434.95239 117.87714 449.29239 118.40992 458.58582 C 118.86297 466.48863 123.78199 472.16883 126.80233 475.45137 C 129.44243 478.32068 131.04415 480.32278 132.76789 483.44911 C 139.04581 476.45913 144.44504 470.08266 147.28488 458.04149 C 148.73909 449.95838 145.93841 448.53754 138.11644 435.17224 C 131.29591 435.79909 129.73434 436.84417 124.99296 435.65357 C 120.32519 434.48146 121.02462 432.93778 118.2971 433.23148 Z " style="stroke: none; stroke-linecap: butt; stroke-width: 1; fill: rgb(98%,0%,0%); fill-rule: evenodd;" />
					</g>
					<g transform="">
						<path d="M 190.2688 433.68217 C 191.93582 435.40308 190.68876 449.74308 190.15598 459.03651 C 189.70293 466.93932 184.78391 472.61952 181.76357 475.90206 C 179.12347 478.77137 177.52175 480.77347 175.79801 483.8998 C 169.52009 476.90982 164.12086 470.53335 161.28102 458.49218 C 159.82681 450.40907 162.62749 448.98823 170.44946 435.62293 C 177.26999 436.24978 178.83156 437.29486 183.57294 436.10426 C 188.24071 434.93215 187.54128 433.38847 190.2688 433.68217 Z " style="stroke: none; stroke-linecap: butt; stroke-width: 1; fill: rgb(98%,0%,0%); fill-rule: evenodd;" />
					</g>
				</g>
			</g>
		</g>
	</g>
</svg>