<?xml version="1.0" encoding="utf-8"?>
<!DOCTYPE svg PUBLIC '-//W3C//DTD SVG 1.0//EN' 'http://www.w3.org/TR/2001/REC-SVG-20010904/DTD/svg10.dtd'>
<svg width="200.0" height="369.0" preserveAspectRatio="xMinYMin meet" viewBox="0 0 200 369" xmlns="http://www.w3.org/2000/svg" version="1.0" fill-rule="evenodd" xmlns:xlink="http://www.w3.org/1999/xlink">
	<title>...</title>
	<desc>...</desc>
	<clipPath id="clip">
		<rect x="0" y="0" width="200.0" height="369.0" />
	</clipPath>
	<g id="group" transform="scale(1,-1) translate(0,-369)" style="clip-path: url(#clip)">
		<g transform="">
			<g transform=" matrix(1,0,0,-1,0,369)">
				<g transform=" matrix(1,0,0,1,-395.71431,-316.50506)">
					<g transform="">
						<path d="M 463.34788 436.83405 C 461.68086 438.55496 465.28846 435.97582 465.43024 452.39761 C 465.57203 468.81941 463.8998 453.86105 467.30181 471.77069 C 468.58513 478.52666 481.8234 494.8664 483.29498 492.48803 C 484.76656 490.10966 479.83871 479.43972 479.16343 472.75266 C 478.41092 465.30087 479.45943 457.77137 479.27763 450.28389 C 479.12645 444.05753 479.48182 435.0896 478.27598 431.62616 C 476.69354 427.08107 463.55002 436.54035 463.34788 436.83405 Z " style="stroke: none; stroke-linecap: butt; stroke-width: 1; fill: rgb(98%,0%,0%); fill-rule: evenodd;" />
					</g>
					<g transform="">
						<path d="M 526.31803 436.83405 C 527.98505 438.55496 524.37745 435.97582 524.23567 452.39761 C 524.09388 468.81941 525.76611 453.86105 522.3641 471.77069 C 521.08078 478.52666 507.84251 494.8664 506.37093 492.48803 C 504.89935 490.10966 509.8272 479.43972 510.50248 472.75266 C 511.25499 465.30087 510.20648 457.77137 510.38828 450.28389 C 510.53946 444.05753 510.18409 435.0896 511.38993 431.62616 C 512.97237 427.08107 526.11589 436.54035 526.31803 436.83405 Z " style="stroke: none; stroke-linecap: butt; stroke-width: 1; fill: rgb(98%,0%,0%); fill-rule: evenodd;" />
					</g>
				</g>
			</g>
		</g>
	</g>
</svg>