<?xml version="1.0" encoding="utf-8"?>
<!DOCTYPE svg PUBLIC '-//W3C//DTD SVG 1.0//EN' 'http://www.w3.org/TR/2001/REC-SVG-20010904/DTD/svg10.dtd'>
<svg width="200.0" height="362.0" preserveAspectRatio="xMinYMin meet" viewBox="0 0 200 362" xmlns="http://www.w3.org/2000/svg" version="1.0" fill-rule="evenodd" xmlns:xlink="http://www.w3.org/1999/xlink">
	<title>...</title>
	<desc>...</desc>
	<clipPath id="clip">
		<rect x="0" y="0" width="200.0" height="362.0" />
	</clipPath>
	<g id="group" transform="scale(1,-1) translate(0,-362)" style="clip-path: url(#clip)">
		<g transform="">
			<g transform=" matrix(1,0,0,-1,0,362)">
				<g transform=" matrix(1,0,0,1,-395.71431,-323.50506)">
					<g transform="">
						<path d="M 496.71569 400.4595 C 495.15938 401.97975 495.61281 404.31557 495.29459 406.26283 C 494.93209 408.61415 494.49391 411.05698 495.20159 413.39162 C 496.01238 424.81004 499.41699 423.5887 503.42089 424.29121 C 515.68439 426.44292 518.60481 424.595 525.52471 421.94697 C 529.07794 420.58726 531.91673 418.21733 534.7787 415.26624 C 530.95514 409.70786 529.6405 405.81115 526.02015 401.90614 C 522.27123 397.86245 518.39507 392.3858 512.91031 391.81733 C 507.53266 391.25996 499.85776 398.65721 498.30105 398.8627 C 497.58582 399.16656 497.13874 399.84306 496.71573 400.45946 Z " style="stroke: none; stroke-linecap: butt; stroke-width: 1; fill: rgb(98%,0%,0%); fill-rule: evenodd;" />
					</g>
					<g transform="">
						<path d="M 492.21306 400.04042 C 493.76937 401.56067 493.31594 403.89649 493.63416 405.84375 C 493.99666 408.19507 494.43484 410.6379 493.72716 412.97254 C 492.91637 424.39096 489.51176 423.16962 485.50786 423.87213 C 473.24436 426.02384 470.32394 424.17592 463.40404 421.52789 C 459.85081 420.16818 457.01202 417.79825 454.15005 414.84716 C 457.97361 409.28878 459.28825 405.39207 462.9086 401.48706 C 466.65752 397.44337 470.53368 391.96672 476.01844 391.39825 C 481.39609 390.84088 489.07099 398.23813 490.6277 398.44362 C 491.34293 398.74748 491.79001 399.42398 492.21302 400.04038 Z " style="stroke: none; stroke-linecap: butt; stroke-width: 1; fill: rgb(98%,0%,0%); fill-rule: evenodd;" />
					</g>
				</g>
			</g>
		</g>
	</g>
</svg>