<?xml version="1.0" encoding="utf-8"?>
<!DOCTYPE svg PUBLIC '-//W3C//DTD SVG 1.0//EN' 'http://www.w3.org/TR/2001/REC-SVG-20010904/DTD/svg10.dtd'>
<svg width="200.0" height="369.0" preserveAspectRatio="xMinYMin meet" viewBox="0 0 200 369" xmlns="http://www.w3.org/2000/svg" version="1.0" fill-rule="evenodd" xmlns:xlink="http://www.w3.org/1999/xlink">
	<title>...</title>
	<desc>...</desc>
	<clipPath id="clip">
		<rect x="0" y="0" width="200.0" height="369.0" />
	</clipPath>
	<g id="group" transform="scale(1,-1) translate(0,-369)" style="clip-path: url(#clip)">
		<g transform="">
			<g transform=" matrix(1,0,0,-1,0,369)">
				<g transform=" matrix(1,0,0,1,-395.71431,-316.50506)">
					<g transform="">
						<path d="M 520.2455 501.96347 C 518.57848 503.68438 511.19984 519.00817 509.24664 528.32797 C 507.21365 538.02849 504.13286 551.42752 504.75961 559.08311 C 504.94632 561.36369 506.47605 564.20706 508.5786 565.56563 C 512.61724 568.17522 520.14959 561.78153 521.62117 559.40316 C 523.09275 557.02479 524.61291 551.02135 525.74723 546.72399 C 527.70006 539.32571 531.14061 529.63454 530.34213 524.23355 C 526.45898 521.66073 524.99048 520.72845 523.78464 517.26501 C 522.2022 512.71992 520.44764 501.66977 520.2455 501.96347 Z " style="stroke: none; stroke-linecap: butt; stroke-width: 1; fill: rgb(98%,0%,0%); fill-rule: evenodd;" />
					</g>
					<g transform="">
						<path d="M 469.80904 501.37145 C 471.47606 503.09236 478.8547 518.41615 480.8079 527.73595 C 482.84089 537.43647 485.92168 550.8355 485.29493 558.49109 C 485.10822 560.77167 483.57849 563.61504 481.47594 564.97361 C 477.4373 567.5832 469.90495 561.18951 468.43337 558.81114 C 466.96179 556.43277 465.44163 550.42933 464.30731 546.13197 C 462.35448 538.73369 458.91393 529.04252 459.71241 523.64153 C 463.59556 521.06871 465.06406 520.13643 466.2699 516.67299 C 467.85234 512.1279 469.6069 501.07775 469.80904 501.37145 Z " style="stroke: none; stroke-linecap: butt; stroke-width: 1; fill: rgb(98%,0%,0%); fill-rule: evenodd;" />
					</g>
				</g>
			</g>
		</g>
	</g>
</svg>