<?xml version="1.0" encoding="utf-8"?>
<!DOCTYPE svg PUBLIC '-//W3C//DTD SVG 1.0//EN' 'http://www.w3.org/TR/2001/REC-SVG-20010904/DTD/svg10.dtd'>
<svg width="200.0" height="369.0" preserveAspectRatio="xMinYMin meet" viewBox="0 0 200 369" xmlns="http://www.w3.org/2000/svg" version="1.0" fill-rule="evenodd" xmlns:xlink="http://www.w3.org/1999/xlink">
	<title>...</title>
	<desc>...</desc>
	<clipPath id="clip">
		<rect x="0" y="0" width="200.0" height="369.0" />
	</clipPath>
	<g id="group" transform="scale(1,-1) translate(0,-369)" style="clip-path: url(#clip)">
		<g transform="">
			<g transform=" matrix(1,0,0,-1,0,369)">
				<g transform=" matrix(1,0,0,1,-395.71431,-316.50506)">
					<g transform="">
						<path d="M 498.36277 434.58481 C 496.80646 436.10506 498.23229 438.57234 498.19167 440.56671 C 498.13967 443.1212 498.14827 445.67667 498.09867 448.23122 C 498.01117 452.74084 497.8772 457.2495 497.73785 461.75782 C 497.56837 467.24101 497.89112 471.6638 497.15982 478.20508 C 496.20004 486.78996 495.82013 497.86262 496.65892 498.26076 C 498.24784 499.18054 502.21412 495.22413 504.10919 492.79643 C 505.62189 490.85857 505.59224 492.09101 506.8969 485.9685 C 507.79965 481.73208 508.32719 476.71331 508.56899 476.24198 C 509.17535 475.14295 509.51139 471.42994 509.95801 466.83461 C 510.37178 462.57726 510.24423 459.82853 510.19046 456.32482 C 510.09846 450.33077 510.22666 440.75318 509.24131 438.36563 C 509.15911 435.1575 508.13102 434.76137 505.95841 433.19228 C 503.40813 432.54979 499.83892 432.56181 498.36281 434.58477 Z " style="stroke: none; stroke-linecap: butt; stroke-width: 1; fill: rgb(98%,0%,0%); fill-rule: evenodd;" />
					</g>
					<g transform="">
						<path d="M 490.21813 434.48339 C 491.77444 436.00364 490.34861 438.47092 490.38923 440.46529 C 490.44123 443.01978 490.43263 445.57525 490.48223 448.1298 C 490.56973 452.63942 490.7037 457.14808 490.84305 461.6564 C 491.01253 467.13959 490.68978 471.56238 491.42108 478.10366 C 492.38086 486.68854 492.76077 497.7612 491.92198 498.15934 C 490.33306 499.07912 486.36678 495.12271 484.47171 492.69501 C 482.95901 490.75715 482.98866 491.98959 481.684 485.86708 C 480.78125 481.63066 480.25371 476.61189 480.01191 476.14056 C 479.40555 475.04153 479.06951 471.32852 478.62289 466.73319 C 478.20912 462.47584 478.33667 459.72711 478.39044 456.2234 C 478.48244 450.22935 478.35424 440.65176 479.33959 438.26421 C 479.42179 435.05608 480.44988 434.65995 482.62249 433.09086 C 485.17277 432.44837 488.74198 432.46039 490.21809 434.48335 Z " style="stroke: none; stroke-linecap: butt; stroke-width: 1; fill: rgb(98%,0%,0%); fill-rule: evenodd;" />
					</g>
				</g>
			</g>
		</g>
	</g>
</svg>