<?xml version="1.0" encoding="utf-8"?>
<!DOCTYPE svg PUBLIC '-//W3C//DTD SVG 1.0//EN' 'http://www.w3.org/TR/2001/REC-SVG-20010904/DTD/svg10.dtd'>
<svg width="200.0" height="362.0" preserveAspectRatio="xMinYMin meet" viewBox="0 0 200 362" xmlns="http://www.w3.org/2000/svg" version="1.0" fill-rule="evenodd" xmlns:xlink="http://www.w3.org/1999/xlink">
	<title>...</title>
	<desc>...</desc>
	<clipPath id="clip">
		<rect x="0" y="0" width="200.0" height="362.0" />
	</clipPath>
	<g id="group" transform="scale(1,-1) translate(0,-362)" style="clip-path: url(#clip)">
		<g transform="">
			<g transform=" matrix(1,0,0,-1,0,362)">
				<g transform=" matrix(1,0,0,1,-395.71431,-323.50506)">
					<g transform="">
						<path d="M 517.82599 424.19421 C 517.33683 424.98355 520.71676 425.18543 520.53582 426.1123 C 520.36299 426.99762 518.00949 428.55768 517.98354 429.68195 C 517.95624 430.86418 520.3886 429.59765 520.4388 430.81636 C 520.4865 431.97399 516.69828 436.94663 516.73926 437.9318 C 516.79976 439.38508 521.41416 438.39565 521.29716 440.16897 C 521.17581 442.00806 517.77537 445.2877 517.86787 446.97998 C 517.96047 448.67428 519.77877 447.77059 520.49906 448.81624 C 520.9369 449.45187 520.01368 452.32042 520.80631 452.56731 C 523.52773 447.76399 528.16863 442.12735 527.74715 439.91284 C 527.5772 437.67558 529.39187 423.82631 526.85783 421.31299 C 524.77133 421.72645 520.83787 423.25991 517.82599 424.19421 Z " style="stroke: none; stroke-linecap: butt; stroke-width: 1; fill: rgb(98%,0%,0%); fill-rule: evenodd;" />
					</g>
					<g transform="">
						<path d="M 468.06573 428.23907 C 468.55489 429.02841 463.9754 429.29343 464.15634 430.2203 C 464.32917 431.10562 467.12462 433.73896 467.15057 434.86323 C 467.17787 436.04546 463.48281 434.46326 463.43261 435.68197 C 463.38491 436.8396 467.80448 442.63299 467.7635 443.61816 C 467.703 445.07144 464.47756 440.60961 464.59456 442.38293 C 464.71591 444.22202 467.04306 448.13301 466.95056 449.82529 C 466.85796 451.51959 466.11295 449.98455 465.39266 451.0302 C 464.95482 451.66583 465.87804 454.53438 465.08541 454.78127 C 462.36399 449.97795 457.72309 444.34131 458.14457 442.1268 C 458.31452 439.88954 456.49985 426.04027 459.03389 423.52695 C 460.74158 424.19295 465.05385 427.30477 468.06573 428.23907 Z " style="stroke: none; stroke-linecap: butt; stroke-width: 1; fill: rgb(98%,0%,0%); fill-rule: evenodd;" />
					</g>
				</g>
			</g>
		</g>
	</g>
</svg>