<?xml version="1.0" encoding="utf-8"?>
<!DOCTYPE svg PUBLIC '-//W3C//DTD SVG 1.0//EN' 'http://www.w3.org/TR/2001/REC-SVG-20010904/DTD/svg10.dtd'>
<svg width="200.0" height="369.03" preserveAspectRatio="xMinYMin meet" viewBox="0 0 200 369" xmlns="http://www.w3.org/2000/svg" version="1.0" fill-rule="evenodd" xmlns:xlink="http://www.w3.org/1999/xlink">
	<title>...</title>
	<desc>...</desc>
	<clipPath id="clip">
		<rect x="0" y="0" width="200.0" height="369.03" />
	</clipPath>
	<g id="group" transform="scale(1,-1) translate(0,-369)" style="clip-path: url(#clip)">
		<g transform="">
			<g transform=" matrix(1,0,0,-1,0,369.03)">
				<g transform=" matrix(1,0,0,1,-54.28571,-335.71492)">
					<g transform="">
						<path d="M 138.64274 667.76525 C 140.56508 673.85904 141.07435 681.46362 141.57587 687.50924 C 139.65769 681.40597 135.9538 675.65985 134.03562 669.55658 C 132.28826 662.64484 130.00519 654.30452 128.25783 647.39278 C 131.42185 654.36217 134.75612 662.74289 138.64274 667.76525 Z " style="stroke: none; stroke-linecap: butt; stroke-width: 1; fill: rgb(98%,0%,0%); fill-rule: evenodd;" />
					</g>
					<g transform="">
						<path d="M 170.38125 667.76525 C 168.45891 673.85904 167.94964 681.46362 167.44812 687.50924 C 169.3663 681.40597 173.07019 675.65985 174.98837 669.55658 C 176.73573 662.64484 179.0188 654.30452 180.76616 647.39278 C 177.60214 654.36217 174.26787 662.74289 170.38125 667.76525 Z " style="stroke: none; stroke-linecap: butt; stroke-width: 1; fill: rgb(98%,0%,0%); fill-rule: evenodd;" />
					</g>
				</g>
			</g>
		</g>
	</g>
</svg>