<?xml version="1.0" encoding="utf-8"?>
<!DOCTYPE svg PUBLIC '-//W3C//DTD SVG 1.0//EN' 'http://www.w3.org/TR/2001/REC-SVG-20010904/DTD/svg10.dtd'>
<svg width="200.0" height="369.03" preserveAspectRatio="xMinYMin meet" viewBox="0 0 200 369" xmlns="http://www.w3.org/2000/svg" version="1.0" fill-rule="evenodd" xmlns:xlink="http://www.w3.org/1999/xlink">
	<title>...</title>
	<desc>...</desc>
	<clipPath id="clip">
		<rect x="0" y="0" width="200.0" height="369.03" />
	</clipPath>
	<g id="group" transform="scale(1,-1) translate(0,-369)" style="clip-path: url(#clip)">
		<g transform="">
			<g transform=" matrix(1,0,0,-1,0,369.03)">
				<g transform=" matrix(1,0,0,1,-54.28571,-335.71492)">
					<g transform="">
						<path d="M 133.87398 415.10147 C 137.72048 424.19846 138.74494 440.60195 148.70042 451.3582 C 148.68612 447.3554 150.29518 425.73614 150.2368 424.83323 C 149.36558 417.66382 150.87978 387.18131 148.79968 380.58027 C 146.06597 377.79917 147.6739 378.836 146.5807 380.43772 C 139.67931 390.54939 131.49865 395.91948 120.75269 399.93697 C 126.85715 403.48634 131.57451 408.05867 133.87398 415.10147 Z " style="stroke: none; stroke-linecap: butt; stroke-width: 1; fill: rgb(98%,0%,0%); fill-rule: evenodd;" />
					</g>
					<g transform="">
						<path d="M 176.08582 415.27863 C 172.23932 424.37562 171.21486 440.77911 161.25938 451.53536 C 161.27368 447.53256 159.66462 425.9133 159.723 425.01039 C 160.59422 417.84098 159.08002 387.35847 161.16012 380.75743 C 163.89383 377.97633 162.2859 379.01316 163.3791 380.61488 C 170.28049 390.72655 178.46115 396.09664 189.20711 400.11413 C 183.10265 403.6635 178.38529 408.23583 176.08582 415.27863 Z " style="stroke: none; stroke-linecap: butt; stroke-width: 1; fill: rgb(98%,0%,0%); fill-rule: evenodd;" />
					</g>
				</g>
			</g>
		</g>
	</g>
</svg>