<?xml version="1.0" encoding="utf-8"?>
<!DOCTYPE svg PUBLIC '-//W3C//DTD SVG 1.0//EN' 'http://www.w3.org/TR/2001/REC-SVG-20010904/DTD/svg10.dtd'>
<svg width="200.0" height="369.0256" preserveAspectRatio="xMinYMin meet" viewBox="0 0 200 369" xmlns="http://www.w3.org/2000/svg" version="1.0" fill-rule="evenodd" xmlns:xlink="http://www.w3.org/1999/xlink">
	<title>...</title>
	<desc>...</desc>
	<clipPath id="clip">
		<rect x="0" y="0" width="200.0" height="369.0256" />
	</clipPath>
	<g id="group" transform="scale(1,-1) translate(0,-369)" style="clip-path: url(#clip)">
		<g transform="">
			<g transform=" matrix(1,0,0,-1,0,369.0256)">
				<g transform=" matrix(1,0,0,1,-54.28571,-335.71932)">
					<g transform="">
						<path d="M 191.55063 438.91472 C 191.18813 441.26604 190.92852 449.60172 191.63623 451.93636 C 195.48273 461.03335 195.26075 463.15085 198.7841 464.80024 C 204.88629 467.65686 203.59646 465.88722 205.70935 464.956 C 207.76432 464.0503 210.42325 462.19758 210.14191 459.88241 C 209.27069 452.713 211.14203 445.62335 209.06193 439.02231 C 192.59005 422.26482 193.0545 428.86168 191.55066 438.91472 Z " style="stroke: none; stroke-linecap: butt; stroke-width: 1; fill: rgb(98%,0%,0%); fill-rule: evenodd;" />
					</g>
					<g transform="">
						<path d="M 116.92894 439.13084 C 117.29144 441.48216 117.55105 449.81784 116.84334 452.15248 C 112.99684 461.24947 113.21882 463.36697 109.69547 465.01636 C 103.59328 467.87298 104.88311 466.10334 102.77022 465.17212 C 100.71525 464.26642 98.056322 462.4137 98.337662 460.09853 C 99.208882 452.92912 97.337542 445.83947 99.417642 439.23843 C 115.88952 422.48094 115.42507 429.0778 116.92891 439.13084 Z " style="stroke: none; stroke-linecap: butt; stroke-width: 1; fill: rgb(98%,0%,0%); fill-rule: evenodd;" />
					</g>
				</g>
			</g>
		</g>
	</g>
</svg>